<svg xmlns="http://www.w3.org/2000/svg" viewBox="0 0 216.74 68"><defs><style>
	.cls-1{fill:#2d89ef;}
	.cls-2{fill:#4a4a4a;stroke:#4a4a4a;
	stroke-linecap:round;stroke-miterlimit:10;}
	.cls-3{fill:#fff;}
	.cls-4{fill:#fff;}
	.cls-3 {
	  animation: shake 10s cubic-bezier(.36,.07,.19,.97) infinite;
	}

	@keyframes shake {
		0%, 90% {
		    transform: translate3d(-1px, 0, 0);
		  }
	  91%, 99% {
	    transform: translate3d(-1px, 0, 0);
	  }
	  
	  92%, 98% {
	    transform: translate3d(2px, 0, 0);
	  }

	  93%, 95%, 97% {
	    transform: translate3d(-4px, 0, 0);
	  }

	  94%, 96% {
	    transform: translate3d(4px, 0, 0);
	  }
	}
</style></defs><title>Artboard 1</title><g id="Layer_1" data-name="Layer 1"><path id="Shape" class="cls-1" d="M64.61,16.2A17.59,17.59,0,0,0,51.8,3.39a114.87,114.87,0,0,0-35.6,0A17.61,17.61,0,0,0,3.39,16.2a114.87,114.87,0,0,0,0,35.6A17.61,17.61,0,0,0,16.2,64.61a114.87,114.87,0,0,0,35.6,0A17.59,17.59,0,0,0,64.61,51.8,114.87,114.87,0,0,0,64.61,16.2Z"/><path class="cls-2" d="M110.9,44.72h-1.59q-3.87,0-5.21-2.82Q101,46,88,46q-13.59,0-13.59-8a13.35,13.35,0,0,1,.6-4q.84-2.73,2.43-2.73A1.47,1.47,0,0,1,79.06,33a8.68,8.68,0,0,1-.24,1.69,8.68,8.68,0,0,0-.24,1.69,3.18,3.18,0,0,0,1.49,2.87q2.21,1.37,8.13,1.37H91q8.72,0,10.76-2.57A17.37,17.37,0,0,0,103,35.48c.4-.91,1-1.36,1.66-1.36a1.56,1.56,0,0,1,1.58,1c0,.22.16.8.34,1.73.33,1.68,1.51,2.52,3.56,2.52h.74ZM89.76,26.23A2.6,2.6,0,0,1,89,28.11a2.62,2.62,0,0,1-3.73,0,2.63,2.63,0,0,1-.76-1.88A2.64,2.64,0,0,1,89,24.37,2.5,2.5,0,0,1,89.76,26.23Zm6.38,0a2.59,2.59,0,0,1-.76,1.88,2.48,2.48,0,0,1-1.86.78,2.51,2.51,0,0,1-1.86-.78,2.62,2.62,0,0,1-.75-1.88,2.58,2.58,0,0,1,2.61-2.62,2.6,2.6,0,0,1,2.62,2.62Z"/><path class="cls-2" d="M119.55,36.4a8.36,8.36,0,0,1-2.16,6.09,7.93,7.93,0,0,1-6,2.23h-1.81V39.38h2.11q3.42,0,3.42-2.4a9,9,0,0,0-.33-2,8.48,8.48,0,0,1-.34-2,2.36,2.36,0,0,1,.61-1.62,2,2,0,0,1,1.55-.68Q119.55,30.68,119.55,36.4Zm-1.36-12.35a2.6,2.6,0,0,1-.75,1.87,2.64,2.64,0,0,1-4.5-1.87,2.47,2.47,0,0,1,.77-1.86,2.62,2.62,0,0,1,4.48,1.86Z"/><path class="cls-2" d="M154.65,37.84a13.5,13.5,0,0,1-3.19,9.2q-3.51,4-9.64,4c-3.61,0-6.44-1.11-8.47-3.32a9.77,9.77,0,0,1-2.59-6.82,15.46,15.46,0,0,1,.82-4.91c.71-2.11,1.65-3.17,2.85-3.17s1.79.63,1.79,1.88a10.27,10.27,0,0,1-.51,2.59,10.54,10.54,0,0,0-.5,2.62,5.07,5.07,0,0,0,2.16,4.36,7.84,7.84,0,0,0,4.81,1.41,8.34,8.34,0,0,0,5.6-1.73A6.65,6.65,0,0,0,150,38.57a11.29,11.29,0,0,0-.52-2.77,11,11,0,0,1-.53-2.73c0-1.72.82-2.57,2.45-2.57,1.15,0,2,1,2.64,3A14.65,14.65,0,0,1,154.65,37.84Zm-10.1-11.73a2.57,2.57,0,0,1-.76,1.88,2.48,2.48,0,0,1-1.86.78,2.51,2.51,0,0,1-1.86-.78,2.6,2.6,0,0,1-.75-1.88,2.56,2.56,0,0,1,2.61-2.61,2.58,2.58,0,0,1,2.62,2.61Z"/><path class="cls-2" d="M170.54,38.39a14.47,14.47,0,0,1-3.79,9.66,21.67,21.67,0,0,1-8.68,6,3.31,3.31,0,0,1-1.19.23,2.32,2.32,0,0,1-1.62-.61,2,2,0,0,1-.67-1.52A2.34,2.34,0,0,1,156.24,50a25,25,0,0,0,5.64-3.47A12.46,12.46,0,0,0,166,41.37a5.77,5.77,0,0,1-2.6.53,5.26,5.26,0,0,1-4-1.46,5.46,5.46,0,0,1-1.42-4,8.5,8.5,0,0,1,1.58-4.89A5,5,0,0,1,163.65,29,5.89,5.89,0,0,1,169,32.12,12,12,0,0,1,170.54,38.39ZM166,36.88a3.8,3.8,0,0,0-.68-1.93,2,2,0,0,0-1.71-.94,1.81,1.81,0,0,0-1.29.51,1.72,1.72,0,0,0-.55,1.28c0,1,.66,1.51,2,1.51A4.76,4.76,0,0,0,166,36.88Z"/><path class="cls-2" d="M186.82,34.79c0,.59.06,1.17.06,1.72a16,16,0,0,1-3.64,10.6A18.75,18.75,0,0,1,173.62,53a3.89,3.89,0,0,1-1.06.14c-1.51,0-2.27-.69-2.27-2.07,0-1.14.7-2,2.09-2.66q5.33-2.41,7.28-4.5a9.17,9.17,0,0,0,2.27-6.51c0-.31,0-.77-.07-1.38s-.07-1.07-.07-1.38q0-3.77,2.27-3.76Q186.52,30.91,186.82,34.79Zm-1.43-10.4a2.54,2.54,0,0,1-.77,1.88,2.62,2.62,0,0,1-3.73,0,2.6,2.6,0,0,1-.75-1.88,2.63,2.63,0,0,1,2.61-2.62,2.57,2.57,0,0,1,1.87.76A2.5,2.5,0,0,1,185.39,24.39Z"/><path class="cls-2" d="M203.35,34.79c0,.59.07,1.17.07,1.72a16,16,0,0,1-3.65,10.6A18.75,18.75,0,0,1,190.15,53a3.86,3.86,0,0,1-1.05.14c-1.52,0-2.27-.69-2.27-2.07a2.94,2.94,0,0,1,2.08-2.66q5.33-2.41,7.28-4.5a9.17,9.17,0,0,0,2.27-6.51c0-.31,0-.77-.07-1.38s-.07-1.07-.07-1.38q0-3.77,2.28-3.76Q203,30.91,203.35,34.79Z"/><path class="cls-2" d="M209.58,43c0,1.67-.66,2.5-2,2.5s-1.89-.78-1.95-2.34l-.89-22.81a5.14,5.14,0,0,1,.5-2.5,2.16,2.16,0,0,1,2-1.33c1.54,0,2.32,1.16,2.32,3.49Z"/></g><g id="Layer_2" data-name="Layer 2"><path class="cls-3" d="M44.77,27.09a.83.83,0,0,0-.78-.53H33.71L43.9,10.44a.77.77,0,0,0,0-.87.9.9,0,0,0-.78-.43H29.18a.93.93,0,0,0-.79.43L15.32,35.71a.81.81,0,0,0,0,.87,1.07,1.07,0,0,0,.79.44h9L15.32,60.28a.88.88,0,0,0,.35,1,.64.64,0,0,0,.44.09,1,1,0,0,0,.69-.27L44.69,28A.92.92,0,0,0,44.77,27.09Z"/><path class="cls-4" d="M40.37,48.31A1.78,1.78,0,0,1,39.82,47a1.83,1.83,0,0,1,.55-1.32,1.77,1.77,0,0,1,1.31-.56h4.78V40.46A1.87,1.87,0,0,1,47,39.11a1.8,1.8,0,0,1,1.34-.56,1.88,1.88,0,0,1,1.37.56,1.81,1.81,0,0,1,.57,1.35v4.66h4.78a1.75,1.75,0,0,1,1.31.56A1.89,1.89,0,0,1,56.91,47a1.84,1.84,0,0,1-.53,1.31,1.77,1.77,0,0,1-1.31.54H50.29V53.5a1.86,1.86,0,0,1-.57,1.37,1.91,1.91,0,0,1-1.37.55A1.83,1.83,0,0,1,47,54.87a1.92,1.92,0,0,1-.55-1.37V48.85H41.68A1.79,1.79,0,0,1,40.37,48.31Z"/></g></svg>