<?xml version="1.0" encoding="UTF-8"?>
<svg width="98pt" height="59pt" version="1.1" viewBox="0 0 98 59" xmlns="http://www.w3.org/2000/svg">
<g>
<path d="m61.086 15.875c0.66406 0.011719 1.332 0.007812 1.9961 0.003906-0.003906 3.1328-0.003906 6.2617 0 9.3906-0.66406 0-1.332-0.003906-1.9961 0.003907-0.03125-2.2188-0.003907-4.4375-0.011719-6.6562 0.007812-0.91406-0.019531-1.8281 0.011719-2.7422z" fill="#fff"/>
<path d="m64.371 15.879c0.66797 0 1.332 0.007813 2-0.003906 0.03125 2.1016 0.003906 4.2031 0.011718 6.3047-0.007812 1.0312 0.019532 2.0625-0.011718 3.0938-0.66797-0.007813-1.332-0.003907-2-0.003907 0.003906-3.1289 0.007812-6.2578 0-9.3906z" fill="#fff"/>
<path d="m27.18 16.371c0.67187-0.027344 1.3477-0.027344 2.0234 0 0.003906 2.9688 0.019531 5.9375-0.007813 8.9023-0.66797-0.007813-1.3398-0.007813-2.0117 0-0.023438-2.9648-0.007813-5.9336-0.003906-8.9023z" fill="#fff"/>
<path d="m32.996 19.035c0.41797-0.34375 0.98047-0.42969 1.5039-0.39453 0.039062 0.64453 0.015625 1.2891 0.015625 1.9336-0.42969-0.035157-0.89062-0.089844-1.2852 0.12891-0.40234 0.21094-0.64062 0.66016-0.64844 1.1133-0.03125 1.1523 0.015625 2.3047-0.023437 3.457-0.66406-0.007813-1.332-0.003907-1.9961-0.003907-0.003906-2.1562 0.027344-4.3164-0.042969-6.4727 0.57031-0.011719 1.1406-0.003906 1.7109-0.003906 0.078125 0.38281 0.03125 0.77734 0.09375 1.1641 0.1875-0.33203 0.35547-0.69141 0.67188-0.92188z" fill="#fff"/>
<path d="m35.406 19.062c0.89844-0.35938 1.8867-0.50391 2.8477-0.38281 0.69531 0.10547 1.4102 0.42969 1.7852 1.0625 0.34375 0.56641 0.42578 1.25 0.41016 1.9023 0.011719 1.207-0.042969 2.418 0.066406 3.625h-1.8008c-0.039063-0.20312-0.078125-0.40234-0.12109-0.60156-0.40234 0.35547-0.87109 0.66016-1.4141 0.71875-0.74219 0.12109-1.582-0.074219-2.0742-0.67969-0.82422-0.97656-0.48438-2.668 0.67969-3.2188 0.79688-0.45703 1.7383-0.53125 2.6406-0.54688 0.015625-0.35938-0.19922-0.71094-0.55078-0.80859-0.80469-0.25-1.6484 0.03125-2.3828 0.37109-0.14063-0.38672-0.25781-0.78125-0.34375-1.1797-0.058594-0.16797 0.15625-0.20312 0.25781-0.26172m1.5898 3.4727c-0.40625 0.26953-0.48438 0.94531-0.10938 1.2734 0.42969 0.32422 1.0781 0.16016 1.3906-0.25391 0.31641-0.37891 0.17188-0.90625 0.19531-1.3594-0.50391 0.03125-1.0391 0.058594-1.4766 0.33984z" fill="#fff"/>
<path d="m43.469 19.676c0.46094-0.64844 1.2344-1.0547 2.0273-1.0352 0.67969 0 1.3828 0.28906 1.7773 0.86328 0.35156 0.51953 0.50781 1.1602 0.49609 1.7812-0.003906 1.3281 0 2.6562 0 3.9844-0.66406 0-1.332-0.003906-1.9961 0.003907-0.035157-1.2695 0.007812-2.543-0.019532-3.8164-0.011718-0.38672-0.14062-0.80078-0.47266-1.0234-0.46484-0.30078-1.1445-0.10156-1.4062 0.375-0.30859 0.52344-0.17969 1.1523-0.20703 1.7266-0.019531 0.91016 0.039062 1.8281-0.027344 2.7383-0.64844-0.007813-1.3008-0.007813-1.9531 0-0.050781-0.4375-0.019531-0.875-0.027344-1.3125-0.007812-1.7188 0.027344-3.4375-0.039062-5.1562 0.58203-0.023438 1.168-0.015626 1.75-0.003907 0.027344 0.29297 0.058594 0.58203 0.097656 0.875z" fill="#fff"/>
<path d="m49.852 19.438c1.1211-0.88672 2.7109-0.98828 4.0312-0.53906-0.09375 0.5-0.19141 1.0039-0.32812 1.4961-0.64063-0.19141-1.3789-0.29688-1.9883 0.042969-1.1406 0.625-1.1133 2.5703 0.035156 3.1641 0.63281 0.33203 1.375 0.21094 2.0312 0.015626 0.089844 0.49219 0.16406 0.98828 0.24609 1.4805-0.76953 0.32812-1.6328 0.36719-2.4531 0.27734-1.0039-0.12891-1.9805-0.71094-2.418-1.6562-0.65625-1.3984-0.39844-3.2891 0.84375-4.2812z" fill="#fff"/>
<path d="m54.961 19.68c0.625-0.74609 1.625-1.0859 2.5742-1.0352 0.80859 0.027344 1.6289 0.39062 2.0898 1.0781 0.60938 0.85156 0.67969 1.957 0.54688 2.9688-1.3789 0.011719-2.7617-0.046875-4.1406 0.023438 0.066406 0.46875 0.41797 0.84766 0.85156 1.0039 0.88672 0.32812 1.8555 0.13672 2.7422-0.09375 0.070312 0.46484 0.20703 0.92188 0.23047 1.3984-1.0078 0.37109-2.1133 0.48437-3.1758 0.32031-0.88672-0.14453-1.7344-0.65625-2.1602-1.4688-0.68359-1.3203-0.51953-3.0586 0.44141-4.1953m1.4297 0.72266c-0.21484 0.24219-0.3125 0.5625-0.37109 0.875 0.77734 0.023437 1.5547 0.011718 2.332 0.007812 0.027344-0.48438-0.21094-1.0195-0.67578-1.207-0.4375-0.19141-0.98438-0.042969-1.2852 0.32422z" fill="#fff"/>
<path d="m20.371 1.2695c18.25 0.011719 36.5 0.003907 54.75 0.003907-0.015625 9.4648-0.003906 18.926-0.007813 28.387 0.003907 3.2266-0.007812 6.4531 0.007813 9.6797-18.25 0.003906-36.5-0.007813-54.75 0.007812-0.03125-5.6055 0-11.211-0.015625-16.812-0.003907-0.24609 0.003906-0.49219 0.027343-0.73828 0.38281 1.7188 1.6289 3.082 2.9961 4.1094 2.3672 1.7578 5.1523 2.8281 7.9531 3.6602 5.2578 1.5117 10.746 2.0469 16.199 2.0508 1.6523-0.042969 3.3086-0.066407 4.9609-0.20703 3.668-0.30859 7.3281-0.89062 10.863-1.9492 1.8906-0.57813 3.7539-1.2773 5.5-2.2188 1.2812-0.69922 2.5117-1.5312 3.5156-2.6055 0.85547-0.91797 1.5352-2.0664 1.6367-3.3438 0.10547-1.1328-0.30078-2.2578-0.93359-3.1758-0.80859-1.168-1.9375-2.0703-3.1172-2.832-2.3477-1.4805-4.9844-2.4297-7.6445-3.1641-3.7266-1.0117-7.5664-1.5273-11.414-1.7578-4.3281-0.20312-8.6836-0.085937-12.98 0.54688-3.3164 0.49219-6.6172 1.2461-9.7461 2.4805-1.4492 0.57422-2.8633 1.2617-4.1641 2.1328-1.6133 1.0977-3.1719 2.5625-3.625 4.5469-0.011718-0.16016-0.023437-0.31641-0.027343-0.47656 0.003906-5.0469 0-10.094 0.003906-15.141 0.007813-1.0625-0.019531-2.125 0.011719-3.1836z" fill="#ffca08"/>
<path d="m20.379 40.906c9.3164 0.019531 18.633 0.003906 27.949 0.007812 8.9297-0.003906 17.859 0.011719 26.793-0.003906 0 5.5117-0.007813 11.027 0 16.539-1.2852 0.066406-2.5781 0.011719-3.8711 0.03125-14.867 0-29.738-0.003907-44.609 0-2.0938-0.011719-4.1875 0.019531-6.2773-0.019531-0.011719-4.9609-0.003906-9.9219-0.003906-14.887 0.003906-0.55469-0.019531-1.1133 0.019531-1.668m8.6641 2.8398c-0.87891 3.6406-1.7773 7.2734-2.6484 10.918 1.125-0.015624 2.2539 0.019532 3.3828-0.019531 0.58203-2.3945 1.1992-4.7812 1.7695-7.1836 0.11328 0.18359 0.066406 0.41406 0.09375 0.61719 0.16406 2.207 0.30078 4.4141 0.48047 6.6172 0.97266 0.039063 1.9492 0.027344 2.9219 0.007813 1.4336-2.5195 2.8242-5.0586 4.25-7.582-0.082031 0.52734-0.26172 1.0312-0.39453 1.5469-0.53516 2.0117-1.0898 4.0156-1.6172 6.0273 0.73047 0.046876 1.4648 0.011719 2.1953 0.019532 0.46094-0.011719 0.92188 0.039062 1.3789-0.039063 0.85938-3.6523 1.7891-7.2891 2.6719-10.934-1.6719-0.007813-3.3398-0.019532-5.0039 0.003906-0.93359 1.7031-1.8828 3.3984-2.8164 5.1016-0.46484 0.78516-0.85938 1.6133-1.3477 2.3828-0.046875-0.26562-0.066406-0.53906-0.078125-0.80859-0.15234-2.2305-0.32812-4.457-0.48047-6.6836-1.5859 0-3.1719-0.019531-4.7578 0.007813m15.746-0.003906c-0.25 1-0.47266 2.0039-0.69922 3.0078 1.1172 0.03125 2.2383-0.007812 3.3594 0.019531-0.44141 1.9062-0.92578 3.8008-1.3984 5.6992 1.1094 0.035156 2.2227 0.035156 3.332 0 0.48047-1.8984 0.96094-3.793 1.4336-5.6953 1.1406-0.039063 2.2852 0.019531 3.4258-0.027344 0.23047-1.0078 0.53516-1.9922 0.73828-3.0039-3.3945-0.011719-6.793-0.015626-10.191 0m11.359 0.011718c-0.83594 3.6523-1.7812 7.2773-2.6133 10.926 1.0664 0.019531 2.1367 0.003906 3.207 0.011718 0.23828-0.6875 0.36328-1.4062 0.55469-2.1055 0.41016-1.5664 0.76562-3.1445 1.2188-4.6992 0.32422 0.50781 0.53516 1.0781 0.81641 1.6094 0.81641 1.7266 1.6914 3.4258 2.4844 5.168 0.54688 0.050782 1.0977 0.011719 1.6445 0.023438 0.60937-0.007812 1.2188 0.027344 1.8281-0.019531 0.50391-2.0977 1.0391-4.1875 1.5586-6.2852 0.36719-1.5508 0.80859-3.0859 1.1445-4.6406-1.1445-0.007813-2.2891-0.03125-3.4336 0.011718-0.49609 2.125-1.0586 4.2344-1.5625 6.3594-0.035156 0.14844-0.089844 0.29297-0.14453 0.43359-0.29687-0.45703-0.48828-0.97266-0.73437-1.457-0.85938-1.7773-1.7109-3.5625-2.5703-5.3398-1.1328-0.027344-2.2656-0.03125-3.3984 0.003906m-10.266 9.3438c-0.10547 0.53125-0.25781 1.0469-0.37109 1.5742 1.1094 0.03125 2.2227 0.023437 3.332 0.003906 0.11719-0.53125 0.27734-1.0547 0.375-1.5938-0.62109-0.054687-1.2461-0.011719-1.8633-0.027343-0.49219 0.015624-0.98438-0.039063-1.4727 0.042968z" fill="#ffca08"/>
<path d="m37.918 10.91c4.2969-0.63281 8.6523-0.75 12.98-0.54688 3.8477 0.23047 7.6875 0.74609 11.414 1.7578 2.6602 0.73438 5.2969 1.6836 7.6445 3.1641 1.1797 0.76172 2.3086 1.6641 3.1172 2.832 0.63281 0.91797 1.0391 2.043 0.93359 3.1758-0.10156 1.2773-0.78125 2.4258-1.6367 3.3438-1.0039 1.0742-2.2344 1.9062-3.5156 2.6055-1.7461 0.94141-3.6094 1.6406-5.5 2.2188-3.5352 1.0586-7.1953 1.6406-10.863 1.9492-1.6523 0.14062-3.3086 0.16406-4.9609 0.20703-5.4531-0.003907-10.941-0.53906-16.199-2.0508-2.8008-0.83203-5.5859-1.9023-7.9531-3.6602-1.3672-1.0273-2.6133-2.3906-2.9961-4.1094-0.042968-0.57422-0.046874-1.1562 0-1.7266 0.45313-1.9844 2.0117-3.4492 3.625-4.5469 1.3008-0.87109 2.7148-1.5586 4.1641-2.1328 3.1289-1.2344 6.4297-1.9883 9.7461-2.4805m23.168 4.9648c-0.03125 0.91406-0.003907 1.8281-0.011719 2.7422 0.007812 2.2188-0.019531 4.4375 0.011719 6.6562 0.66406-0.007813 1.332-0.003907 1.9961-0.003907-0.003906-3.1289-0.003906-6.2578 0-9.3906-0.66406 0.003906-1.332 0.007813-1.9961-0.003906m3.2852 0.003906c0.007812 3.1328 0.003906 6.2617 0 9.3906 0.66797 0 1.332-0.003906 2 0.003907 0.03125-1.0312 0.003906-2.0625 0.011718-3.0938-0.007812-2.1016 0.019532-4.2031-0.011718-6.3047-0.66797 0.011719-1.332 0.003906-2 0.003906m-37.191 0.49219c-0.003907 2.9688-0.019532 5.9375 0.003906 8.9023 0.67188-0.007813 1.3438-0.007813 2.0117 0 0.027344-2.9648 0.011719-5.9336 0.007813-8.9023-0.67578-0.027344-1.3516-0.027344-2.0234 0m5.8164 2.6641c-0.31641 0.23047-0.48438 0.58984-0.67188 0.92188-0.0625-0.38672-0.015625-0.78125-0.09375-1.1641-0.57031 0-1.1406-0.007813-1.7109 0.003906 0.070313 2.1562 0.039063 4.3164 0.042969 6.4727 0.66406 0 1.332-0.003906 1.9961 0.003907 0.039062-1.1523-0.007813-2.3047 0.023437-3.457 0.007813-0.45312 0.24609-0.90234 0.64844-1.1133 0.39453-0.21875 0.85547-0.16406 1.2852-0.12891 0-0.64453 0.023437-1.2891-0.015625-1.9336-0.52344-0.035156-1.0859 0.050781-1.5039 0.39453m2.4102 0.027344c-0.10156 0.058594-0.31641 0.09375-0.25781 0.26172 0.085937 0.39844 0.20312 0.79297 0.34375 1.1797 0.73437-0.33984 1.5781-0.62109 2.3828-0.37109 0.35156 0.097657 0.56641 0.44922 0.55078 0.80859-0.90234 0.015625-1.8438 0.089844-2.6406 0.54688-1.1641 0.55078-1.5039 2.2422-0.67969 3.2188 0.49219 0.60547 1.332 0.80078 2.0742 0.67969 0.54297-0.058594 1.0117-0.36328 1.4141-0.71875 0.042969 0.19922 0.082031 0.39844 0.12109 0.60156h1.8008c-0.10938-1.207-0.054687-2.418-0.066406-3.625 0.015625-0.65234-0.066407-1.3359-0.41016-1.9023-0.375-0.63281-1.0898-0.95703-1.7852-1.0625-0.96094-0.12109-1.9492 0.023437-2.8477 0.38281m8.0625 0.61328c-0.039062-0.29297-0.070312-0.58203-0.097656-0.875-0.58203-0.011719-1.168-0.019531-1.75 0.003907 0.066406 1.7188 0.03125 3.4375 0.039062 5.1562 0.007813 0.4375-0.023437 0.875 0.027344 1.3125 0.65234-0.007813 1.3047-0.007813 1.9531 0 0.066406-0.91016 0.007813-1.8281 0.027344-2.7383 0.027343-0.57422-0.10156-1.2031 0.20703-1.7266 0.26172-0.47656 0.94141-0.67578 1.4062-0.375 0.33203 0.22266 0.46094 0.63672 0.47266 1.0234 0.027344 1.2734-0.015625 2.5469 0.019532 3.8164 0.66406-0.007813 1.332-0.003907 1.9961-0.003907 0-1.3281-0.003906-2.6562 0-3.9844 0.011719-0.62109-0.14453-1.2617-0.49609-1.7812-0.39453-0.57422-1.0977-0.86328-1.7773-0.86328-0.79297-0.019531-1.5664 0.38672-2.0273 1.0352m6.3828-0.23828c-1.2422 0.99219-1.5 2.8828-0.84375 4.2812 0.4375 0.94531 1.4141 1.5273 2.418 1.6562 0.82031 0.089844 1.6836 0.050781 2.4531-0.27734-0.082031-0.49219-0.15625-0.98828-0.24609-1.4805-0.65625 0.19531-1.3984 0.31641-2.0312-0.015626-1.1484-0.59375-1.1758-2.5391-0.035156-3.1641 0.60938-0.33984 1.3477-0.23438 1.9883-0.042969 0.13672-0.49219 0.23437-0.99609 0.32812-1.4961-1.3203-0.44922-2.9102-0.34766-4.0312 0.53906m5.1094 0.24219c-0.96094 1.1367-1.125 2.875-0.44141 4.1953 0.42578 0.8125 1.2734 1.3242 2.1602 1.4688 1.0625 0.16406 2.168 0.050781 3.1758-0.32031-0.023438-0.47656-0.16016-0.93359-0.23047-1.3984-0.88672 0.23047-1.8555 0.42188-2.7422 0.09375-0.43359-0.15625-0.78516-0.53516-0.85156-1.0039 1.3789-0.070313 2.7617-0.011719 4.1406-0.023438 0.13281-1.0117 0.0625-2.1172-0.54688-2.9688-0.46094-0.6875-1.2812-1.0508-2.0898-1.0781-0.94922-0.050781-1.9492 0.28906-2.5742 1.0352z" fill="#00688e"/>
<path d="m56.391 20.402c0.30078-0.36719 0.84766-0.51562 1.2852-0.32422 0.46484 0.1875 0.70312 0.72266 0.67578 1.207-0.77734 0.003906-1.5547 0.015625-2.332-0.007812 0.058594-0.3125 0.15625-0.63281 0.37109-0.875z" fill="#00688e"/>
<path d="m36.996 22.535c0.4375-0.28125 0.97266-0.30859 1.4766-0.33984-0.023437 0.45313 0.12109 0.98047-0.19531 1.3594-0.3125 0.41406-0.96094 0.57812-1.3906 0.25391-0.375-0.32812-0.29688-1.0039 0.10938-1.2734z" fill="#00688e"/>
<path d="m29.043 43.746c1.5859-0.027344 3.1719-0.007813 4.7578-0.007813 0.15234 2.2266 0.32812 4.4531 0.48047 6.6836 0.011719 0.26953 0.03125 0.54297 0.078125 0.80859 0.48828-0.76953 0.88281-1.5977 1.3477-2.3828 0.93359-1.7031 1.8828-3.3984 2.8164-5.1016 1.6641-0.023438 3.332-0.011719 5.0039-0.003906-0.88281 3.6445-1.8125 7.2812-2.6719 10.934-0.45703 0.078125-0.91797 0.027344-1.3789 0.039063-0.73047-0.007813-1.4648 0.027344-2.1953-0.019532 0.52734-2.0117 1.082-4.0156 1.6172-6.0273 0.13281-0.51562 0.3125-1.0195 0.39453-1.5469-1.4258 2.5234-2.8164 5.0625-4.25 7.582-0.97266 0.019531-1.9492 0.03125-2.9219-0.007813-0.17969-2.2031-0.31641-4.4102-0.48047-6.6172-0.027344-0.20312 0.019531-0.43359-0.09375-0.61719-0.57031 2.4023-1.1875 4.7891-1.7695 7.1836-1.1289 0.039063-2.2578 0.003907-3.3828 0.019531 0.87109-3.6445 1.7695-7.2773 2.6484-10.918z" fill="#00688e"/>
<path d="m44.789 43.742c3.3984-0.015626 6.7969-0.011719 10.191 0-0.20312 1.0117-0.50781 1.9961-0.73828 3.0039-1.1406 0.046875-2.2852-0.011719-3.4258 0.027344-0.47266 1.9023-0.95312 3.7969-1.4336 5.6953-1.1094 0.035156-2.2227 0.035156-3.332 0 0.47266-1.8984 0.95703-3.793 1.3984-5.6992-1.1211-0.027343-2.2422 0.011719-3.3594-0.019531 0.22656-1.0039 0.44922-2.0078 0.69922-3.0078z" fill="#00688e"/>
<path d="m56.148 43.754c1.1328-0.035156 2.2656-0.03125 3.3984-0.003906 0.85938 1.7773 1.7109 3.5625 2.5703 5.3398 0.24609 0.48438 0.4375 1 0.73437 1.457 0.054688-0.14062 0.10938-0.28516 0.14453-0.43359 0.50391-2.125 1.0664-4.2344 1.5625-6.3594 1.1445-0.042968 2.2891-0.019531 3.4336-0.011718-0.33594 1.5547-0.77734 3.0898-1.1445 4.6406-0.51953 2.0977-1.0547 4.1875-1.5586 6.2852-0.60937 0.046875-1.2188 0.011719-1.8281 0.019531-0.54688-0.011719-1.0977 0.027344-1.6445-0.023438-0.79297-1.7422-1.668-3.4414-2.4844-5.168-0.28125-0.53125-0.49219-1.1016-0.81641-1.6094-0.45312 1.5547-0.80859 3.1328-1.2188 4.6992-0.19141 0.69922-0.31641 1.418-0.55469 2.1055-1.0703-0.007812-2.1406 0.007813-3.207-0.011718 0.83203-3.6484 1.7773-7.2734 2.6133-10.926z" fill="#00688e"/>
<path d="m45.883 53.098c0.48828-0.082031 0.98047-0.027344 1.4727-0.042968 0.61719 0.015624 1.2422-0.027344 1.8633 0.027343-0.097656 0.53906-0.25781 1.0625-0.375 1.5938-1.1094 0.019531-2.2227 0.027344-3.332-0.003906 0.11328-0.52734 0.26562-1.043 0.37109-1.5742z" fill="#e21e26"/>
</g>
</svg>
