<?xml version="1.0" encoding="UTF-8"?>
<svg width="98pt" height="59pt" version="1.1" viewBox="0 0 98 59" xmlns="http://www.w3.org/2000/svg">
<g>
<path d="m26.52 18.668c0.80078-0.36328 1.6172-0.69922 2.4141-1.082 0.058594 4.418 0.007812 8.8359 0.027344 13.254-0.015626 0.11719-0.042969 0.34375-0.054688 0.45703-0.82031 0.32812-1.6133 0.71875-2.4336 1.043-0.015625-4.5156 0-9.0312-0.007812-13.547z" fill="#221f20"/>
<path d="m40.168 18.652c0.82031-0.34375 1.6172-0.75391 2.4336-1.1016 0 4.5391 0.003907 9.0781 0 13.621l-0.046874 0.097656c-0.82422 0.34375-1.6133 0.78516-2.4453 1.0938 0.007813-4.5234 0.003906-9.0469 0-13.574z" fill="#221f20"/>
<path d="m13.578 18.688c0.82422-0.34766 1.6406-0.71875 2.4766-1.0469 0.011718 4.6953 0 9.3867 0.003906 14.082 0.039062 0.80859-0.46094 1.5898-1.1875 1.9297-2.7148 1.2695-5.4414 2.5273-8.1562 3.7969-1.1094 0.48828-2.3711 0.80859-3.5664 0.50391-0.84766-0.21484-1.5-0.92188-1.7656-1.75-0.47656-1.3984-0.51172-3.0703 0.31641-4.3477 0.46484-0.72266 1.2148-1.2031 1.9883-1.5312 2.4102-1.1289 4.8164-2.2617 7.2266-3.3906 0.10938 0.87891 0.011719 1.8047 0.046876 2.7031-2.3711 1.1875-4.7891 2.2891-7.1719 3.4531-0.43359 0.22656-0.83984 0.59375-0.95312 1.0938-0.12109 0.5 0.058593 1.1445 0.57422 1.3398 0.53516 0.20703 1.1445 0.12109 1.6836-0.042969 2.8164-1.3047 5.6172-2.6484 8.4336-3.9531l0.058594-0.125c-0.003907-4.2383-0.03125-8.4766-0.007813-12.715z" fill="#221f20"/>
<path d="m48.324 18.094c0.050781 0.015625 0.15625 0.039062 0.20703 0.054688 1.6953 1.0859 3.3906 2.2109 4.7969 3.6719 0.41406 0.46484 0.85156 0.96875 0.97656 1.6016 0.03125 0.78906 0.21484 1.8047-0.59375 2.2812-1.3555 0.77734-2.7695 1.4648-4.1602 2.1836-0.12891 0.47266-0.050781 1.0117-0.03125 1.5078 1.7109-0.83594 3.4414-1.6328 5.1719-2.4297-0.003906 0.92188 0.003906 1.8359-0.003906 2.7539-5.9531 2.8008-11.922 5.5742-17.883 8.3633-0.54297 0.21094-1.0469 0.58203-1.6172 0.67969 0.082031-0.90625-0.058594-1.8477 0.070312-2.7422 4.3594-2.0078 8.6953-4.0586 13.051-6.0781 0.054687-0.49219-0.007813-0.99219 0.035156-1.4883-0.96094 0.21875-2.043 0.69531-3.0117 0.19922-0.84766-0.45312-0.99609-1.5625-0.90625-2.4336 0.019531-1.0586 0.69922-1.9219 1.2812-2.7383 0.79688-1.0391 1.6641-2.0234 2.582-2.9531 0.11328-0.79297 0.03125-1.625 0.035157-2.4336m1.125 4.5273c-0.011719 1.0586 0.019531 2.1211-0.015625 3.1836 0.55078-0.039063 1.0703-0.42969 1.5586-0.70703 0.45312-0.3125 1.0859-0.86719 0.73437-1.4727-0.50391-0.71875-1.4688-0.90625-2.2773-1.0039m-2.5898 2.3711c-0.34766 0.38281-0.94141 0.77734-0.82031 1.3711 0.37891 0.43359 1.043 0.23438 1.543 0.19922 0.25-0.089844 0.60938-0.011719 0.77734-0.25781-0.039063-0.90234-0.035156-1.8125-0.023437-2.7148-0.55078 0.38281-0.97266 0.94922-1.4766 1.4023z" fill="#221f20"/>
<path d="m17.703 25.523c0.47656-0.89844 1.457-1.5273 2.4766-1.4922 1.1797 0.011719 2.3555 0.4375 3.2578 1.2109 0.99219 0.83203 1.6523 1.9961 2.0781 3.2109 0.57812 1.3906 0.082031 3.2734-1.3008 3.9688-2.7031 1.2266-5.3789 2.5078-8.0742 3.7383-0.11719-0.85938-0.007813-1.7812-0.054687-2.6641l0.082031-0.13281c2.5742-1.1875 5.1406-2.4023 7.7148-3.5898 0.09375-0.3125-0.007812-0.65234 0.027344-0.97266-1.5195 0.74609-3.0625 1.5938-4.7695 1.8242-0.57422 0.0625-1.25 0.046875-1.6758-0.40234-0.37891-0.39453-0.37891-0.98438-0.37109-1.5-0.046875-1.0898 0.074219-2.2305 0.60938-3.1992m1.9102 1.0039c-0.82031 0.11719-1.1523 1.0703-0.89844 1.7852 1.0469-0.35547 2.082-0.76953 3.1094-1.1836-0.33594-0.86719-1.4727-0.77734-2.2109-0.60156z" fill="#221f20"/>
<path d="m33.047 25.363l0.12109-0.027343c1.7461 1.0781 3.4648 2.25 4.8984 3.7383 0.48438 0.53906 1.0156 1.1758 0.97266 1.9531-0.027343 0.41016 0.0625 0.83594-0.058593 1.2344-0.21484 0.48438-0.6875 0.78516-1.1445 1.0039-1.6211 0.78125-3.2266 1.5938-4.8477 2.3633-0.96484 0.36328-2.1484 0.73828-3.0977 0.14844-0.94531-0.73047-0.875-2.1367-0.60547-3.1836 0.84375-1.9219 2.4023-3.3906 3.7617-4.9414 0.003906-0.76172 0-1.5273 0-2.2891m-1.7891 7.0703c-0.27344 0.37109-0.64844 1.0117-0.14844 1.3633 0.57812 0.23438 1.1992-0.066406 1.7578-0.24219 1.4609-0.58984 2.8711-1.3398 4.1875-2.2031-0.45313-0.89844-1.2539-1.6328-2.1289-2.0977-1.3242 0.91797-2.6602 1.8984-3.668 3.1797z" fill="#221f20"/>
<path d="m89.93 19.09c1.6016-0.63281 3.2617-1.2695 5.0039-1.293 0.68359-0.011719 1.5781 0.22656 1.7383 1.0117 0.15625 1.0469-0.46094 1.9961-0.98828 2.8438-1.6875 2.4688-3.9609 4.4531-6.2109 6.3789-0.11328 0.082031-0.22656 0.16406-0.34375 0.23828-0.03125-0.019531-0.10156-0.054687-0.13672-0.078125 1.5547-1.3594 3.1484-2.7266 4.4258-4.375 0.64062-0.85938 1.3398-1.7891 1.4336-2.8984 0.0625-0.65625-0.5625-1.0977-1.1484-1.125-1.2734-0.10156-2.5117 0.32812-3.6992 0.73828-3.6992 1.4258-7.0898 3.5586-10.258 5.9375-1.8906 1.4414-3.6992 3.0078-5.2734 4.8008-0.73047 0.87891-1.4805 1.7969-1.8594 2.8984-0.16797 0.47656-0.20312 1.1016 0.22656 1.457 0.55078 0.40234 1.2852 0.34766 1.9297 0.26562 1.7891-0.28125 3.4648-1.0273 5.0977-1.7891 0.003906 0.0625 0.011718 0.18359 0.015624 0.24219-1.9766 1.0078-4.0117 1.9492-6.1758 2.4688-0.875 0.19141-1.8008 0.35156-2.6836 0.10547-0.49219-0.13672-0.90625-0.58203-0.89844-1.1133-0.035156-0.90625 0.46094-1.7148 0.90234-2.4688 0.10156-0.17188 0.22656-0.33203 0.34375-0.49609 2.2617-3.0508 5.2188-5.4844 8.2305-7.7383 3.2305-2.3438 6.6523-4.457 10.328-6.0117z" fill="#faa519"/>
<path d="m89.129 28.27c0.11719-0.074219 0.23047-0.15625 0.34375-0.23828 1.6484-0.074219 3.3398-0.13281 4.9453 0.32031 0.58984 0.18359 1.25 0.46875 1.4961 1.082 0.21484 0.61719-0.16016 1.2344-0.53906 1.6953-0.85547 0.99219-1.9805 1.6953-3.0938 2.3516-3.293 1.8477-6.8711 3.1055-10.492 4.1133-3.8398 1.0234-7.7852 1.8047-11.77 1.7617-1.1523-0.058594-2.3516-0.12109-3.4102-0.62891-0.49219-0.23437-0.96094-0.71875-0.87891-1.3125 0.11328-0.76953 0.69531-1.3516 1.2383-1.8555 1.3125-1.1406 2.8516-1.9648 4.4023-2.7188-0.11719 0.16406-0.24219 0.32422-0.34375 0.49609-0.82812 0.37891-1.5742 0.96094-2.2383 1.5938-0.42578 0.44531-0.92969 1.0781-0.66016 1.7344 0.29688 0.57422 0.96875 0.77734 1.5469 0.92578 1.5039 0.3125 3.0508 0.24609 4.5703 0.12109 2.5859-0.24609 5.1406-0.77734 7.6445-1.4766 3.1836-0.91797 6.3516-2.043 9.1914-3.7969 0.88672-0.60156 1.875-1.2266 2.3242-2.25 0.25781-0.55859-0.12891-1.1641-0.64453-1.3828-1.1289-0.53125-2.4102-0.54297-3.6328-0.53516z" fill="#53c5cf"/>
</g>
</svg>
